REM DIRINDEX 1\2,1\3,1\4,1\5
REM DIRNAME cjc046,folder01,folder02,folder03,folder04
TITLE ""
FILE "172.mp3" MP3
  TRACK 01 AUDIO
    TITLE "0:"
    INDEX 01 00:00:00
  TRACK 02 AUDIO
    TITLE "2:cjc046_5215"
    INDEX 01 00:00:13
  TRACK 03 AUDIO
    TITLE "0:"
    INDEX 01 00:01:19
  TRACK 04 AUDIO
    TITLE "3:cjc046_5216"
    INDEX 01 00:01:36
  TRACK 05 AUDIO
    TITLE "0:"
    INDEX 01 00:02:24
  TRACK 06 AUDIO
    TITLE "4:cjc046_5217"
    INDEX 01 00:02:43
  TRACK 07 AUDIO
    TITLE "0:"
    INDEX 01 00:03:49
  TRACK 08 AUDIO
    TITLE "2:cjc046_5218"
    INDEX 01 00:04:56
  TRACK 09 AUDIO
    TITLE "0:"
    INDEX 01 00:06:04
  TRACK 10 AUDIO
    TITLE "3:cjc046_5219"
    INDEX 01 00:06:20
  TRACK 11 AUDIO
    TITLE "0:"
    INDEX 01 00:07:52
  TRACK 12 AUDIO
    TITLE "4:cjc046_5220"
    INDEX 01 00:07:74
  TRACK 13 AUDIO
    TITLE "0:"
    INDEX 01 00:09:18
  TRACK 14 AUDIO
    TITLE "2:cjc046_5221"
    INDEX 01 00:10:19
  TRACK 15 AUDIO
    TITLE "0:"
    INDEX 01 00:11:31
  TRACK 16 AUDIO
    TITLE "3:cjc046_5222"
    INDEX 01 00:11:50
  TRACK 17 AUDIO
    TITLE "0:"
    INDEX 01 00:13:12
  TRACK 18 AUDIO
    TITLE "4:cjc046_5223"
    INDEX 01 00:13:22
  TRACK 19 AUDIO
    TITLE "0:"
    INDEX 01 00:14:31
  TRACK 20 AUDIO
    TITLE "2:cjc046_5224"
    INDEX 01 00:15:38
  TRACK 21 AUDIO
    TITLE "0:"
    INDEX 01 00:16:51
  TRACK 22 AUDIO
    TITLE "3:cjc046_5225"
    INDEX 01 00:17:00
  TRACK 23 AUDIO
    TITLE "0:"
    INDEX 01 00:18:66
  TRACK 24 AUDIO
    TITLE "4:cjc046_5226"
    INDEX 01 00:19:09
  TRACK 25 AUDIO
    TITLE "0:"
    INDEX 01 00:20:22
  TRACK 26 AUDIO
    TITLE "2:cjc046_5227"
    INDEX 01 00:21:33
  TRACK 27 AUDIO
    TITLE "0:"
    INDEX 01 00:22:46
  TRACK 28 AUDIO
    TITLE "3:cjc046_5228"
    INDEX 01 00:22:64
  TRACK 29 AUDIO
    TITLE "0:"
    INDEX 01 00:24:04
  TRACK 30 AUDIO
    TITLE "4:cjc046_5229"
    INDEX 01 00:24:16
  TRACK 31 AUDIO
    TITLE "0:"
    INDEX 01 00:25:31
  TRACK 32 AUDIO
    TITLE "2:cjc046_5230"
    INDEX 01 00:26:38
  TRACK 33 AUDIO
    TITLE "0:"
    INDEX 01 00:27:34
  TRACK 34 AUDIO
    TITLE "3:cjc046_5231"
    INDEX 01 00:27:53
  TRACK 35 AUDIO
    TITLE "0:"
    INDEX 01 00:28:43
  TRACK 36 AUDIO
    TITLE "4:cjc046_5232"
    INDEX 01 00:28:64
  TRACK 37 AUDIO
    TITLE "0:"
    INDEX 01 00:29:60
  TRACK 38 AUDIO
    TITLE "2:cjc046_5233"
    INDEX 01 00:30:71
  TRACK 39 AUDIO
    TITLE "0:"
    INDEX 01 00:32:07
  TRACK 40 AUDIO
    TITLE "3:cjc046_5234"
    INDEX 01 00:32:27
  TRACK 41 AUDIO
    TITLE "0:"
    INDEX 01 00:33:69
  TRACK 42 AUDIO
    TITLE "4:cjc046_5235"
    INDEX 01 00:34:06
  TRACK 43 AUDIO
    TITLE "0:"
    INDEX 01 00:35:19
  TRACK 44 AUDIO
    TITLE "2:cjc046_5236"
    INDEX 01 00:36:27
  TRACK 45 AUDIO
    TITLE "0:"
    INDEX 01 00:37:28
  TRACK 46 AUDIO
    TITLE "3:cjc046_5237"
    INDEX 01 00:37:46
  TRACK 47 AUDIO
    TITLE "0:"
    INDEX 01 00:38:55
  TRACK 48 AUDIO
    TITLE "4:cjc046_5238"
    INDEX 01 00:39:02
  TRACK 49 AUDIO
    TITLE "0:"
    INDEX 01 00:40:03
  TRACK 50 AUDIO
    TITLE "2:cjc046_5239"
    INDEX 01 00:41:16
  TRACK 51 AUDIO
    TITLE "0:"
    INDEX 01 00:42:27
  TRACK 52 AUDIO
    TITLE "3:cjc046_5240"
    INDEX 01 00:42:45
  TRACK 53 AUDIO
    TITLE "0:"
    INDEX 01 00:44:58
  TRACK 54 AUDIO
    TITLE "4:cjc046_5241"
    INDEX 01 00:44:71
  TRACK 55 AUDIO
    TITLE "0:"
    INDEX 01 00:46:07
  TRACK 56 AUDIO
    TITLE "2:cjc046_5242"
    INDEX 01 00:47:15
  TRACK 57 AUDIO
    TITLE "0:"
    INDEX 01 00:48:34
  TRACK 58 AUDIO
    TITLE "3:cjc046_5243"
    INDEX 01 00:48:49
  TRACK 59 AUDIO
    TITLE "0:"
    INDEX 01 00:49:57
  TRACK 60 AUDIO
    TITLE "4:cjc046_5244"
    INDEX 01 00:50:03
  TRACK 61 AUDIO
    TITLE "0:"
    INDEX 01 00:51:24
  TRACK 62 AUDIO
    TITLE "2:cjc046_5245"
    INDEX 01 00:52:30
  TRACK 63 AUDIO
    TITLE "0:"
    INDEX 01 00:53:39
  TRACK 64 AUDIO
    TITLE "3:cjc046_5246"
    INDEX 01 00:53:62
  TRACK 65 AUDIO
    TITLE "0:"
    INDEX 01 00:54:60
  TRACK 66 AUDIO
    TITLE "4:cjc046_5247"
    INDEX 01 00:55:04
  TRACK 67 AUDIO
    TITLE "0:"
    INDEX 01 00:56:16
  TRACK 68 AUDIO
    TITLE "2:cjc046_5248"
    INDEX 01 00:57:25
  TRACK 69 AUDIO
    TITLE "0:"
    INDEX 01 00:58:40
  TRACK 70 AUDIO
    TITLE "3:cjc046_5249"
    INDEX 01 00:58:64
  TRACK 71 AUDIO
    TITLE "0:"
    INDEX 01 01:00:15
  TRACK 72 AUDIO
    TITLE "4:cjc046_5250"
    INDEX 01 01:00:23
  TRACK 73 AUDIO
    TITLE "0:"
    INDEX 01 01:01:38
  TRACK 74 AUDIO
    TITLE "2:cjc046_5251"
    INDEX 01 01:02:48
  TRACK 75 AUDIO
    TITLE "0:"
    INDEX 01 01:03:57
  TRACK 76 AUDIO
    TITLE "3:cjc046_5252"
    INDEX 01 01:04:00
  TRACK 77 AUDIO
    TITLE "0:"
    INDEX 01 01:05:07
  TRACK 78 AUDIO
    TITLE "4:cjc046_5253"
    INDEX 01 01:05:21
  TRACK 79 AUDIO
    TITLE "0:"
    INDEX 01 01:06:28
  TRACK 80 AUDIO
    TITLE "2:cjc046_5254"
    INDEX 01 01:07:39
  TRACK 81 AUDIO
    TITLE "0:"
    INDEX 01 01:08:46
  TRACK 82 AUDIO
    TITLE "3:cjc046_5255"
    INDEX 01 01:08:68
  TRACK 83 AUDIO
    TITLE "0:"
    INDEX 01 01:10:33
  TRACK 84 AUDIO
    TITLE "4:cjc046_5256"
    INDEX 01 01:10:47
  TRACK 85 AUDIO
    TITLE "0:"
    INDEX 01 01:11:56
  TRACK 86 AUDIO
    TITLE "2:cjc046_5257"
    INDEX 01 01:12:64
  TRACK 87 AUDIO
    TITLE "0:"
    INDEX 01 01:14:04
  TRACK 88 AUDIO
    TITLE "3:cjc046_5258"
    INDEX 01 01:14:27
  TRACK 89 AUDIO
    TITLE "0:"
    INDEX 01 01:15:40
  TRACK 90 AUDIO
    TITLE "4:cjc046_5259"
    INDEX 01 01:15:58
  TRACK 91 AUDIO
    TITLE "0:"
    INDEX 01 01:16:73
  TRACK 92 AUDIO
    TITLE "2:cjc046_5260"
    INDEX 01 01:18:07
  TRACK 93 AUDIO
    TITLE "0:"
    INDEX 01 01:19:19
  TRACK 94 AUDIO
    TITLE "3:cjc046_5261"
    INDEX 01 01:19:42
  TRACK 95 AUDIO
    TITLE "0:"
    INDEX 01 01:20:40
  TRACK 96 AUDIO
    TITLE "4:cjc046_5262"
    INDEX 01 01:20:49
  TRACK 97 AUDIO
    TITLE "0:"
    INDEX 01 01:21:61
  TRACK 98 AUDIO
    TITLE "2:cjc046_5263"
    INDEX 01 01:22:74
  TRACK 99 AUDIO
    TITLE "0:"
    INDEX 01 01:24:22
  TRACK 100 AUDIO
    TITLE "3:cjc046_5264"
    INDEX 01 01:24:43
  TRACK 101 AUDIO
    TITLE "0:"
    INDEX 01 01:26:34
  TRACK 102 AUDIO
    TITLE "4:cjc046_5265"
    INDEX 01 01:26:44
  TRACK 103 AUDIO
    TITLE "0:"
    INDEX 01 01:27:67
  TRACK 104 AUDIO
    TITLE "2:cjc046_5266"
    INDEX 01 01:28:74
  TRACK 105 AUDIO
    TITLE "0:"
    INDEX 01 01:30:18
  TRACK 106 AUDIO
    TITLE "3:cjc046_5267"
    INDEX 01 01:30:36
  TRACK 107 AUDIO
    TITLE "0:"
    INDEX 01 01:31:24
  TRACK 108 AUDIO
    TITLE "4:cjc046_5268"
    INDEX 01 01:31:43
  TRACK 109 AUDIO
    TITLE "0:"
    INDEX 01 01:32:64
